<?xml version="1.0" encoding="utf-8"?>
<!-- Generator: Adobe Illustrator 24.1.2, SVG Export Plug-In . SVG Version: 6.00 Build 0)  -->
<svg version="1.1" id="Ebene_1" xmlns="http://www.w3.org/2000/svg" xmlns:xlink="http://www.w3.org/1999/xlink" x="0px" y="0px"
	 viewBox="0 0 568.3 540.5" style="enable-background:new 0 0 568.3 540.5;" xml:space="preserve">
<style type="text/css">
	.st0{fill:#ffffff;}
</style>
<path class="st0" d="M-115.7,234.7l-37,13.5l-32,11.7c-1.9,0.7-3.2,2.4-3.3,4.4c-1.9,39.3-27,75.6-66.5,89.6
	c-51,18.1-107.7-8.1-126.9-58.7c-19.9-52.3,6.9-110.5,59.3-129.5c38.8-14.1,80.7-2.7,107.3,25.6l-141.2,51.4c-2.6,0.9-3.9,3.8-3,6.4
	l9.8,27c0.9,2.6,3.8,3.9,6.4,3l148.7-54.1l0,0l29.1-10.6c2.6-1,4-3.9,2.9-6.5C-189.5,139-266.9,104-336.9,129.5
	c-71.3,25.9-108.1,104.6-82.3,176c25.9,71.5,104.9,108.4,176.3,82.4c45.1-16.4,76.3-53.9,86.7-97.3l41.6-15.1
	c-5.9,65.5-48.6,124.9-114.5,148.9c-90.8,33.1-191.2-13.8-224.3-104.6s13.8-191.2,104.6-224.3c77.8-28.3,162.6,2,206.1,68.3
	c1.3,1.9,3.7,2.7,5.9,1.9l27-9.8c3-1.1,4.2-4.6,2.6-7.3c-51.6-84.7-157.3-124.2-254.1-89C-428.5,84.1-475.9,139-493.5,203
	l-61.6-169.2c-0.9-2.6-3.8-3.9-6.4-3l-27,9.8c-2.6,0.9-3.9,3.8-3,6.4l98.7,271.1l0,0l9.9,27.2c44.8,101.4,161.2,152.1,267,113.6
	c96.8-35.2,152.4-133.4,137.4-231.5c-0.5-3.1-3.7-5-6.7-3.9l-15.4,5.6L-115.7,234.7z"/>
<text transform="matrix(1 0 0 1 -347.6051 509.9175)" style="fill:#D6DDE2; font-family:'ArialMT'; font-size:24.4291px;">labyrinth</text>
<path class="st0" d="M502.4,253.7l-37,13.5l-32,11.7c-1.9,0.7-3.2,2.4-3.3,4.4c-1.8,39.3-27,75.6-66.5,89.6
	c-51,18.1-107.7-8.1-126.9-58.7c-19.8-52.3,6.9-110.5,59.3-129.5c38.8-14.1,80.7-2.7,107.3,25.6L262,261.7c-2.6,0.9-3.9,3.8-3,6.4
	l9.8,27c0.9,2.6,3.8,3.9,6.4,3L423.9,244l0,0l29.1-10.6c2.6-1,4-3.9,3-6.5c-27.4-68.8-104.7-103.8-174.8-78.3
	c-71.3,25.9-108.1,104.6-82.3,176C224.8,396,303.8,433,375.2,407c45.1-16.4,76.3-53.9,86.7-97.3l41.6-15.1
	C497.6,360,454.9,419.5,389,443.4c-90.8,33.1-191.2-13.8-224.3-104.6s13.8-191.2,104.6-224.3c77.8-28.3,162.6,2,206.1,68.3
	c1.3,1.9,3.7,2.7,5.9,1.9l27-9.8c3-1.1,4.2-4.6,2.6-7.3c-51.6-84.7-157.3-124.2-254.1-89C189.6,103.1,142.2,158,124.6,222L63,52.9
	c-0.9-2.6-3.8-3.9-6.4-3l-27,9.8c-2.6,0.9-3.9,3.8-3,6.4l98.7,271.1l0,0l9.9,27.2C180,465.8,296.4,516.5,402.2,478
	c96.8-35.2,152.4-133.4,137.4-231.5c-0.5-3.1-3.7-5-6.7-3.9l-15.4,5.6L502.4,253.7z"/>
</svg>
